<svg width="14" height="14" viewBox="0 0 14 14" fill="none" xmlns="http://www.w3.org/2000/svg">
<path d="M0 1.5C0 0.671573 0.671573 0 1.5 0L4.5 0C5.32843 0 6 0.671573 6 1.5V4.5C6 5.32843 5.32843 6 4.5 6H1.5C0.671573 6 0 5.32843 0 4.5L0 1.5ZM1.5 1C1.22386 1 1 1.22386 1 1.5V4.5C1 4.77614 1.22386 5 1.5 5H4.5C4.77614 5 5 4.77614 5 4.5V1.5C5 1.22386 4.77614 1 4.5 1H1.5ZM8 1.5C8 0.671573 8.67157 0 9.5 0L12.5 0C13.3284 0 14 0.671573 14 1.5V4.5C14 5.32843 13.3284 6 12.5 6H9.5C8.67157 6 8 5.32843 8 4.5V1.5ZM9.5 1C9.22386 1 9 1.22386 9 1.5V4.5C9 4.77614 9.22386 5 9.5 5H12.5C12.7761 5 13 4.77614 13 4.5V1.5C13 1.22386 12.7761 1 12.5 1H9.5ZM0 9.5C0 8.67157 0.671573 8 1.5 8H4.5C5.32843 8 6 8.67157 6 9.5V12.5C6 13.3284 5.32843 14 4.5 14H1.5C0.671573 14 0 13.3284 0 12.5L0 9.5ZM1.5 9C1.22386 9 1 9.22386 1 9.5V12.5C1 12.7761 1.22386 13 1.5 13H4.5C4.77614 13 5 12.7761 5 12.5V9.5C5 9.22386 4.77614 9 4.5 9H1.5ZM8 9.5C8 8.67157 8.67157 8 9.5 8H12.5C13.3284 8 14 8.67157 14 9.5V12.5C14 13.3284 13.3284 14 12.5 14H9.5C8.67157 14 8 13.3284 8 12.5V9.5ZM9.5 9C9.22386 9 9 9.22386 9 9.5V12.5C9 12.7761 9.22386 13 9.5 13H12.5C12.7761 13 13 12.7761 13 12.5V9.5C13 9.22386 12.7761 9 12.5 9H9.5Z" fill="#3D8588"/>
</svg>
