<svg width="16" height="14" viewBox="0 0 16 14" fill="none" xmlns="http://www.w3.org/2000/svg">
<path d="M8.70711 0.499925C8.31658 0.109401 7.68342 0.109399 7.29289 0.499925L0.646447 7.14637C0.451184 7.34163 0.451184 7.65822 0.646447 7.85348C0.841709 8.04874 1.15829 8.04874 1.35355 7.85348L2 7.20703V12.4999C2 13.3284 2.67157 13.9999 3.5 13.9999H12.5C13.3284 13.9999 14 13.3284 14 12.4999V7.20703L14.6464 7.85348C14.8417 8.04874 15.1583 8.04874 15.3536 7.85348C15.5488 7.65822 15.5488 7.34163 15.3536 7.14637L13 4.79282V1.49992C13 1.22378 12.7761 0.999925 12.5 0.999925H11.5C11.2239 0.999925 11 1.22378 11 1.49992V2.79282L8.70711 0.499925ZM13 6.20703V12.4999C13 12.7761 12.7761 12.9999 12.5 12.9999H3.5C3.22386 12.9999 3 12.7761 3 12.4999V6.20703L8 1.20703L13 6.20703Z" fill="#4FAFA2"/>
</svg>
